<?xml version="1.0" encoding="UTF-8" standalone="no"?>
<svg
   xmlns:dc="http://purl.org/dc/elements/1.1/"
   xmlns:cc="http://creativecommons.org/ns#"
   xmlns:rdf="http://www.w3.org/1999/02/22-rdf-syntax-ns#"
   xmlns:svg="http://www.w3.org/2000/svg"
   xmlns="http://www.w3.org/2000/svg"
   xmlns:sodipodi="http://sodipodi.sourceforge.net/DTD/sodipodi-0.dtd"
   xmlns:inkscape="http://www.inkscape.org/namespaces/inkscape"
   inkscape:export-ydpi="96"
   inkscape:export-xdpi="96"
   inkscape:export-filename="/home/john/src/jmckind/conjur-operator/docs/assets/conjur-logo.png"
   viewBox="0 0 63.999997 63.999999"
   version="1.1"
   id="svg54"
   sodipodi:docname="conjur-logo.svg"
   width="64"
   height="64"
   inkscape:version="1.0 (4035a4fb49, 2020-05-01)">
  <metadata
     id="metadata58">
    <rdf:RDF>
      <cc:Work
         rdf:about="">
        <dc:format>image/svg+xml</dc:format>
        <dc:type
           rdf:resource="http://purl.org/dc/dcmitype/StillImage" />
        <dc:title>Asset 28</dc:title>
      </cc:Work>
    </rdf:RDF>
  </metadata>
  <sodipodi:namedview
     inkscape:document-rotation="0"
     pagecolor="#ffffff"
     bordercolor="#666666"
     borderopacity="1"
     objecttolerance="10"
     gridtolerance="10"
     guidetolerance="10"
     inkscape:pageopacity="0"
     inkscape:pageshadow="2"
     inkscape:window-width="2621"
     inkscape:window-height="1834"
     id="namedview56"
     showgrid="false"
     inkscape:zoom="4.6310597"
     inkscape:cx="130.31575"
     inkscape:cy="28.543"
     inkscape:window-x="3988"
     inkscape:window-y="154"
     inkscape:window-maximized="0"
     inkscape:current-layer="Layer_1-2" />
  <defs
     id="defs4">
    <style
       id="style2">.cls-1{fill:#4c8ecc;}.cls-2{fill:#2f74b0;}.cls-3{fill:#808083;}.cls-4{fill:#5a5a5d;}.cls-5{fill:#fff;}</style>
  </defs>
  <title
     id="title6">Asset 28</title>
  <g
     id="Layer_2"
     data-name="Layer 2">
    <g
       id="Layer_1-2"
       data-name="Layer 1">
      <polygon
         class="cls-1"
         points="19.12,11.35 19.12,0 0,11.05 9.85,16.72 "
         id="polygon8"
         transform="matrix(1.4313486,0,0,1.4313486,5.2972868,0.4920443)" />
      <polygon
         class="cls-2"
         points="28.43,27.42 38.26,21.74 38.26,33.09 19.16,44.13 19.14,32.79 "
         id="polygon10"
         transform="matrix(1.4313486,0,0,1.4313486,5.2972868,0.4920443)" />
      <polygon
         class="cls-2"
         points="28.41,16.71 38.23,11.03 19.12,0 19.12,11.35 "
         id="polygon12"
         transform="matrix(1.4313486,0,0,1.4313486,5.2972868,0.4920443)" />
      <polygon
         class="cls-1"
         points="9.85,27.43 0.03,33.12 19.16,44.13 19.14,32.78 "
         id="polygon14"
         transform="matrix(1.4313486,0,0,1.4313486,5.2972868,0.4920443)" />
      <polygon
         class="cls-2"
         points="9.85,16.72 0,11.05 0.03,33.12 9.85,27.43 "
         id="polygon16"
         transform="matrix(1.4313486,0,0,1.4313486,5.2972868,0.4920443)" />
      <polygon
         class="cls-3"
         points="28.41,16.71 28.41,27.43 19.12,22.07 19.12,11.34 "
         id="polygon18"
         transform="matrix(1.4313486,0,0,1.4313486,5.2972868,0.4920443)" />
      <polyline
         class="cls-4"
         points="19.12 11.34 9.85 16.72 9.85 27.43 19.12 22.07 19.12 11.35"
         id="polyline20"
         transform="matrix(1.4313486,0,0,1.4313486,5.2972868,0.4920443)" />
    </g>
  </g>
</svg>
